<svg width="600" height="600" xmlns="http://www.w3.org/2000/svg"><path fill="#fff" d="M-1-1h602v602H-1z"/><g><g clip-rule="evenodd" fill-rule="evenodd"><path fill="#95B03C" d="M263.633 393.221c-2.214 6.218-5.801 11.915-10.513 16.707-4.716 4.797-10.452 8.573-16.824 11.086a50.594 50.594 0 0 1-20.133 3.485 50.4 50.4 0 0 1-19.85-4.736l-99.94 95.05c5.065 9.792 6.316 20.979 3.526 31.564-2.79 10.59-9.441 19.89-18.764 26.248-9.323 6.355-20.717 9.354-32.146 8.462-11.428-.895-22.155-5.62-30.266-13.34-8.108-7.719-13.076-17.929-14.014-28.806-.937-10.88 2.21-21.722 8.892-30.6 6.678-8.875 16.45-15.203 27.573-17.86 11.124-2.652 22.88-1.462 33.166 3.358l99.835-95.026c-3.003-5.666-4.75-11.86-5.125-18.2a44.115 44.115 0 0 1 2.946-18.633c2.315-5.952 5.902-11.38 10.526-15.955 4.625-4.574 10.19-8.188 16.354-10.62a50.564 50.564 0 0 1 19.449-3.51 50.507 50.507 0 0 1 19.3 4.184c6.063 2.643 11.49 6.45 15.935 11.18 4.446 4.733 7.82 10.286 9.908 16.314h72.947c2.41-6.719 6.411-12.819 11.698-17.825 5.283-5.008 11.717-8.787 18.782-11.051v-69.175c-6.438-1.885-12.392-5.027-17.487-9.225-5.091-4.2-9.206-9.362-12.087-15.162a44.338 44.338 0 0 1-4.629-18.513 44.19 44.19 0 0 1 3.618-18.719c2.559-5.932 6.39-11.29 11.246-15.734 4.86-4.444 10.639-7.874 16.968-10.073a50.747 50.747 0 0 1 19.793-2.698 50.408 50.408 0 0 1 19.252 5.136l100.04-95.224c-5.073-9.783-6.337-20.96-3.56-31.548 2.776-10.585 9.41-19.889 18.72-26.253 9.31-6.363 20.691-9.375 32.12-8.497 11.424.878 22.15 5.59 30.266 13.294 8.116 7.702 13.098 17.9 14.053 28.772.95 10.873-2.18 21.713-8.84 30.594-6.66 8.878-16.415 15.22-27.525 17.892-11.119 2.672-22.866 1.5-33.156-3.304L425.31 201.822a44.356 44.356 0 0 1 4.681 18.57 44.17 44.17 0 0 1-3.609 18.789c-2.562 5.954-6.407 11.332-11.284 15.791-4.878 4.457-10.675 7.896-17.034 10.095v69.809c7.785 2.547 14.758 6.937 20.268 12.762 5.505 5.823 9.362 12.886 11.21 20.519a44.017 44.017 0 0 1-.662 23.122c-2.28 7.528-6.534 14.377-12.37 19.906-5.832 5.53-13.046 9.555-20.965 11.693a50.846 50.846 0 0 1-24.296.536c-8.011-1.787-15.412-5.488-21.51-10.753-6.093-5.265-10.683-11.921-13.324-19.342l-72.782-.098z"/><path fill="#3C3C3B" d="M101.32 64.802c0 9.12-2.842 18.037-8.164 25.619-5.322 7.582-12.889 13.492-21.741 16.983-8.853 3.49-18.594 4.402-27.992 2.624-9.397-1.78-18.027-6.172-24.805-12.62-6.773-6.45-11.39-14.665-13.255-23.61-1.87-8.943-.91-18.214 2.755-26.64 3.666-8.427 9.877-15.628 17.844-20.695 7.964-5.067 17.33-7.771 26.915-7.771 12.845 0 25.167 4.857 34.255 13.505 9.084 8.648 14.188 20.377 14.188 32.605zm0 156.774c0 9.12-2.842 18.036-8.164 25.618-5.326 7.584-12.893 13.495-21.746 16.984-8.852 3.489-18.594 4.4-27.995 2.62-9.398-1.781-18.028-6.175-24.801-12.626-6.778-6.45-11.39-14.667-13.255-23.613-1.866-8.946-.907-18.22 2.763-26.645 3.67-8.423 9.886-15.623 17.853-20.688 7.968-5.065 17.34-7.765 26.92-7.763 12.845.01 25.158 4.873 34.237 13.519 9.08 8.647 14.184 20.368 14.188 32.594zm164.728 0c0 9.118-2.842 18.034-8.164 25.616-5.322 7.584-12.889 13.492-21.741 16.984-8.853 3.489-18.594 4.402-27.992 2.623-9.397-1.778-18.027-6.171-24.8-12.62-6.778-6.447-11.39-14.665-13.26-23.61-1.87-8.943-.91-18.214 2.755-26.64 3.666-8.425 9.877-15.627 17.844-20.694 7.968-5.067 17.33-7.772 26.915-7.772 12.845.007 25.163 4.866 34.247 13.512 9.083 8.648 14.192 20.373 14.196 32.6zm0-156.774c0 9.12-2.842 18.037-8.164 25.619-5.322 7.582-12.889 13.492-21.741 16.983-8.853 3.49-18.594 4.402-27.992 2.624-9.397-1.78-18.027-6.172-24.8-12.62-6.778-6.45-11.39-14.665-13.26-23.61-1.87-8.943-.91-18.214 2.755-26.64 3.666-8.427 9.877-15.628 17.844-20.695 7.968-5.067 17.33-7.771 26.915-7.771 12.845.006 25.163 4.866 34.247 13.512 9.083 8.645 14.192 20.372 14.196 32.598zm164.044 0c0 9.117-2.842 18.03-8.16 25.61-5.322 7.582-12.88 13.492-21.728 16.983-8.848 3.494-18.585 4.411-27.978 2.637-9.398-1.771-18.023-6.156-24.806-12.596-6.777-6.44-11.398-14.65-13.276-23.59-1.879-8.94-.933-18.208 2.72-26.633 3.657-8.428 9.855-15.635 17.81-20.71 7.954-5.078 17.312-7.796 26.888-7.811 12.85 0 25.171 4.857 34.255 13.505 9.088 8.648 14.192 20.377 14.192 32.605h.083zm165.477 156.774c0 9.12-2.841 18.036-8.168 25.618-5.326 7.584-12.888 13.495-21.74 16.984-8.858 3.489-18.6 4.4-27.997 2.62-9.397-1.781-18.032-6.175-24.805-12.626-6.773-6.45-11.385-14.667-13.25-23.613-1.87-8.946-.907-18.22 2.763-26.645 3.67-8.423 9.881-15.623 17.853-20.688 7.968-5.065 17.335-7.765 26.92-7.763 12.827.028 25.123 4.897 34.185 13.542 9.066 8.644 14.152 20.358 14.152 32.57h.087zm0 156.79c0 9.12-2.841 18.035-8.168 25.621-5.326 7.582-12.888 13.492-21.74 16.984-8.858 3.487-18.6 4.398-27.997 2.617-9.397-1.78-18.032-6.172-24.805-12.625-6.773-6.449-11.385-14.667-13.25-23.613-1.87-8.944-.907-18.22 2.763-26.643 3.67-8.427 9.881-15.625 17.853-20.69 7.968-5.063 17.335-7.767 26.92-7.76 12.836.025 25.136 4.9 34.202 13.553 9.066 8.654 14.148 20.376 14.135 32.596l.087-.04zm0 156.792c.005 9.118-2.824 18.034-8.142 25.622-5.317 7.586-12.875 13.503-21.719 16.999a50.72 50.72 0 0 1-27.987 2.65c-9.402-1.767-18.036-6.15-24.814-12.592-6.787-6.44-11.407-14.652-13.29-23.592-1.878-8.941-.928-18.214 2.729-26.642 3.652-8.43 9.855-15.637 17.81-20.713 7.963-5.075 17.325-7.793 26.906-7.804 12.84 0 25.15 4.856 34.233 13.495 9.079 8.639 14.187 20.357 14.187 32.577h.087zm-165.477 0c.008 9.118-2.825 18.034-8.138 25.62-5.318 7.584-12.876 13.501-21.72 17.001-8.847 3.498-18.585 4.422-27.982 2.654-9.397-1.767-18.032-6.15-24.814-12.587-6.782-6.44-11.411-14.65-13.29-23.59-1.883-8.94-.941-18.21 2.716-26.64 3.652-8.43 9.846-15.639 17.805-20.717 7.954-5.078 17.317-7.798 26.893-7.813 12.84 0 25.158 4.851 34.242 13.492 9.088 8.64 14.192 20.358 14.205 32.58h.083zm-164.044 0c.009 9.122-2.824 18.04-8.142 25.629-5.322 7.588-12.884 13.505-21.733 16.999-8.852 3.497-18.594 4.415-27.995 2.64-9.398-1.773-18.037-6.162-24.815-12.609-6.777-6.448-11.397-14.662-13.272-23.61-1.87-8.945-.915-18.218 2.75-26.645 3.666-8.43 9.877-15.633 17.845-20.7 7.968-5.07 17.335-7.776 26.92-7.776 12.836.007 25.149 4.862 34.233 13.497 9.083 8.641 14.191 20.355 14.209 32.575zM101.32 378.406c0 9.12-2.842 18.036-8.164 25.618-5.326 7.584-12.893 13.497-21.746 16.984-8.852 3.489-18.594 4.402-27.995 2.622-9.398-1.781-18.028-6.177-24.801-12.625-6.778-6.453-11.39-14.67-13.255-23.614-1.866-8.948-.907-18.219 2.763-26.644 3.67-8.426 9.886-15.626 17.853-20.689 7.968-5.065 17.34-7.767 26.92-7.763 12.845.01 25.158 4.871 34.237 13.517 9.08 8.645 14.184 20.37 14.188 32.594z"/></g></g></svg>